<svg id="Layer_1" data-name="Layer 1" xmlns="http://www.w3.org/2000/svg" xmlns:xlink="http://www.w3.org/1999/xlink" viewBox="0 0 45.89 51.02"><defs><style>.cls-1,.cls-2{fill:#231f20;}.cls-1{stroke:#231f20;stroke-miterlimit:10;stroke-width:0.25px;}.cls-3{fill:url(#linear-gradient);}.cls-4{fill:url(#linear-gradient-2);}</style><linearGradient id="linear-gradient" x1="49.27" y1="254.43" x2="68.18" y2="270.72" gradientUnits="userSpaceOnUse"><stop offset="0.14" stop-color="#39a749"/><stop offset="1" stop-color="#6fbe44"/></linearGradient><linearGradient id="linear-gradient-2" x1="53.51" y1="261.46" x2="74.8" y2="279.8" gradientUnits="userSpaceOnUse"><stop offset="0.14" stop-color="#39a749"/><stop offset="0.27" stop-color="#47ad48"/><stop offset="0.53" stop-color="#5db646"/><stop offset="0.77" stop-color="#6bbc44"/><stop offset="1" stop-color="#6fbe44"/></linearGradient></defs><path class="cls-1" d="M80.73,261.6A29.61,29.61,0,0,0,70,243.71a29,29,0,0,0-11.34-5.31,23.13,23.13,0,0,1,7.08,1.13,24.81,24.81,0,0,1,12.43,9.59,27.29,27.29,0,0,1,4.46,10.22c.16.78.28,1.54.38,2.26a26.16,26.16,0,0,1-1.9,5.66A29,29,0,0,0,80.73,261.6Z" transform="translate(-41.52 -234.85)"/><path class="cls-2" d="M87.41,262.06a25.38,25.38,0,0,1-.84,6.46c-1.7,6.91-6.13,13-7.69,15l-9.37.71c1-1.17,5.57-5.82,7.61-8.79,2.43-3.52,9.12-12.91,5.91-22.07-2.74-7.85-9.24-16.29-11-18.54a11.31,11.31,0,0,1,3.23,2.34c4.09,3.7,9.52,11.06,11.36,18.51A25.83,25.83,0,0,1,87.41,262.06Z" transform="translate(-41.52 -234.85)"/><path class="cls-3" d="M48.07,271.69l-5,2.07a19.74,19.74,0,0,1,34.59-18.65C75.23,256.64,56.05,268.77,48.07,271.69Z" transform="translate(-41.52 -234.85)"/><path class="cls-4" d="M81,266.13a19.74,19.74,0,0,1-37.75,8.09c5-1.36,13.63-3.76,17.33-5.05,5-1.75,9.17-3.31,19.56-8.81a5.76,5.76,0,0,1,.18.59c-3.95,2.3-7.36,4.12-10,5.45a130.5,130.5,0,0,1-13.47,6.17c-2.78,1.07-5.13,1.84-6.77,2.36.74-.16,12.62-2.83,16.75-4.05A101.83,101.83,0,0,0,81,265.63C81,265.8,81,266,81,266.13Z" transform="translate(-41.52 -234.85)"/></svg>